<svg width="23" height="22" viewBox="0 0 23 22" fill="none" xmlns="http://www.w3.org/2000/svg">
<path d="M18.1526 8.71242C18.232 8.70968 18.3111 8.72296 18.3853 8.75146C18.4595 8.77997 18.5272 8.82311 18.5843 8.87832C18.6415 8.93353 18.6869 8.99969 18.718 9.07284C18.749 9.14599 18.765 9.22464 18.765 9.3041C18.765 9.38357 18.749 9.46222 18.718 9.53537C18.6869 9.60852 18.6415 9.67467 18.5843 9.72988C18.5272 9.7851 18.4595 9.82824 18.3853 9.85674C18.3111 9.88524 18.232 9.89852 18.1526 9.89578H16.508V10.9505H18.1526C18.2325 10.9466 18.3123 10.9589 18.3873 10.9868C18.4623 11.0147 18.5308 11.0575 18.5887 11.1127C18.6466 11.1679 18.6927 11.2342 18.7243 11.3077C18.7558 11.3812 18.772 11.4604 18.772 11.5404C18.772 11.6204 18.7558 11.6995 18.7243 11.7731C18.6927 11.8466 18.6466 11.9129 18.5887 11.9681C18.5308 12.0233 18.4623 12.0661 18.3873 12.094C18.3123 12.1218 18.2325 12.1342 18.1526 12.1303H15.9187C15.7626 12.1298 15.613 12.0674 15.5027 11.9568C15.3924 11.8463 15.3304 11.6965 15.3302 11.5404V7.06852C15.3302 6.74297 15.5939 6.47578 15.9187 6.47578H18.1568C18.3086 6.48363 18.4516 6.54958 18.5561 6.65998C18.6607 6.77037 18.7187 6.91675 18.7183 7.06878C18.7178 7.22081 18.6589 7.36685 18.5537 7.47662C18.4485 7.58639 18.3052 7.6515 18.1533 7.65844H16.5087V8.71313L18.1526 8.71242ZM14.5427 11.5397C14.5414 11.6963 14.4784 11.846 14.3672 11.9564C14.2561 12.0667 14.1059 12.1287 13.9493 12.1289C13.8566 12.1298 13.7649 12.1091 13.6816 12.0685C13.5982 12.0278 13.5255 11.9684 13.4691 11.8948L11.1804 8.78203V11.539C11.1804 11.6954 11.1182 11.8455 11.0076 11.9561C10.897 12.0668 10.7469 12.1289 10.5905 12.1289C10.434 12.1289 10.284 12.0668 10.1733 11.9561C10.0627 11.8455 10.0005 11.6954 10.0005 11.539V7.06711C10.0005 6.81469 10.1658 6.58828 10.4034 6.50742C10.4621 6.48669 10.524 6.47646 10.5863 6.47719C10.7691 6.47719 10.9378 6.57633 11.051 6.71555L13.358 9.83531V7.06711C13.358 6.74156 13.6216 6.47438 13.9479 6.47438C14.2741 6.47438 14.5413 6.74156 14.5413 7.06711L14.5427 11.5397ZM9.15961 11.5397C9.15887 11.6965 9.09599 11.8467 8.98476 11.9572C8.87353 12.0678 8.72301 12.1298 8.56617 12.1296C8.4105 12.1283 8.26164 12.0656 8.15196 11.9551C8.04228 11.8447 7.98065 11.6954 7.98047 11.5397V7.06781C7.98047 6.74227 8.24414 6.47508 8.57039 6.47508C8.89594 6.47508 9.16031 6.74227 9.16031 7.06781L9.15961 11.5397ZM6.84844 12.1296H4.61039C4.45372 12.1292 4.30352 12.0671 4.19241 11.9566C4.0813 11.8462 4.01825 11.6964 4.01695 11.5397V7.06781C4.01695 6.74227 4.28414 6.47508 4.61039 6.47508C4.93664 6.47508 5.20031 6.74227 5.20031 7.06781V10.9498H6.84844C7.00489 10.9498 7.15494 11.0119 7.26557 11.1225C7.37621 11.2332 7.43836 11.3832 7.43836 11.5397C7.43836 11.6961 7.37621 11.8462 7.26557 11.9568C7.15494 12.0675 7.00489 12.1296 6.84844 12.1296ZM22.5 9.13289C22.5 4.09781 17.4495 0 11.25 0C5.05055 0 0 4.09781 0 9.13289C0 13.6448 4.00289 17.4241 9.40781 18.142C9.77414 18.2187 10.272 18.3839 10.4006 18.6954C10.5138 18.9766 10.4737 19.4126 10.4372 19.71L10.2832 20.6655C10.2389 20.9475 10.0561 21.7758 11.2648 21.2702C12.477 20.7647 17.7504 17.4473 20.1122 14.7291C21.7273 12.9607 22.5 11.1438 22.5 9.13289Z" fill="#40996C"/>
</svg>
